<svg width="31" height="31" viewBox="0 0 31 31" fill="none" xmlns="http://www.w3.org/2000/svg">
<circle cx="15.5" cy="15.5" r="15.5" fill="#FACB3F"/>
<path fill-rule="evenodd" clip-rule="evenodd" d="M16 8C16.1763 8 16.3454 8.06773 16.4701 8.1883C16.5948 8.30886 16.6648 8.47238 16.6648 8.64288V20.8062L20.8488 16.7603C20.9096 16.6972 20.983 16.6465 21.0646 16.6114C21.1461 16.5762 21.2342 16.5573 21.3234 16.5558C21.4127 16.5543 21.5014 16.5702 21.5842 16.6025C21.6669 16.6348 21.7421 16.683 21.8053 16.744C21.8684 16.8051 21.9182 16.8778 21.9516 16.9578C21.9851 17.0379 22.0015 17.1236 21.9999 17.2099C21.9983 17.2963 21.9788 17.3814 21.9424 17.4602C21.9061 17.5391 21.8537 17.6101 21.7884 17.6689L16.4698 22.812C16.3452 22.9324 16.1762 23 16 23C15.8238 23 15.6548 22.9324 15.5302 22.812L10.2116 17.6689C10.1463 17.6101 10.0939 17.5391 10.0576 17.4602C10.0212 17.3814 10.0017 17.2963 10.0001 17.2099C9.99853 17.1236 10.0149 17.0379 10.0484 16.9578C10.0818 16.8778 10.1316 16.8051 10.1947 16.744C10.2579 16.683 10.3331 16.6348 10.4158 16.6025C10.4986 16.5702 10.5873 16.5543 10.6766 16.5558C10.7658 16.5573 10.8539 16.5762 10.9354 16.6114C11.017 16.6465 11.0904 16.6972 11.1512 16.7603L15.3352 20.8062V8.64288C15.3352 8.47238 15.4052 8.30886 15.5299 8.1883C15.6546 8.06773 15.8237 8 16 8Z" fill="black"/>
</svg>
