<svg width="48" height="50" viewBox="0 0 48 50" fill="none" xmlns="http://www.w3.org/2000/svg">
<path fill-rule="evenodd" clip-rule="evenodd" d="M10.4307 41.3213C13.6947 44.2693 17.2707 46.704 21.308 48.624C23.4707 49.6507 26.036 49.5573 28.1093 48.3747C31.6067 46.38 34.6507 43.9787 37.5933 41.3213C43.8307 35.6867 47.468 27.9333 47.7067 19.756L47.9853 10.2213C48.0173 9.11201 47.9867 6.66667 47.9867 6.66667C46.5907 6.43601 45.18 6.26667 43.7707 6.09867C39.4107 5.57601 35.0693 5.05734 31.26 2.72801L28.544 1.06801C27.3906 0.369405 26.0678 6.10352e-05 24.7193 6.10352e-05C23.3708 6.10352e-05 22.0481 0.369405 20.8947 1.06801L18.2933 2.65867C13.9373 5.32001 8.62933 5.82401 3.492 6.31201C2.328 6.42267 1.172 6.53334 0.0386668 6.66667C0.0386668 6.66667 0.0066668 9.12667 0.0386668 10.252L0.317334 19.756C0.556 27.9333 4.192 35.6867 10.4307 41.3213ZM2.692 9.06801C2.692 9.49467 2.696 9.88801 2.70533 10.1747L2.98267 19.6787C3.2 27.1053 6.50267 34.18 12.2173 39.3427C15.3 42.1253 18.6613 44.412 22.4533 46.2147C23.136 46.5368 23.8859 46.6907 24.6403 46.6636C25.3947 46.6364 26.1316 46.429 26.7893 46.0587C30.0627 44.192 32.948 41.924 35.8067 39.3427C41.5213 34.18 44.824 27.1067 45.0413 19.6787L45.32 10.1427C45.328 9.84534 45.3333 9.42534 45.3333 8.97734C44.7093 8.89734 44.0747 8.82134 43.4267 8.74267L43.3547 8.73467C41.8735 8.56855 40.3966 8.36627 38.9253 8.12801C35.9333 7.62134 32.8027 6.79601 29.8693 5.00401L27.1533 3.34267C26.4186 2.89996 25.5771 2.66602 24.7193 2.66602C23.8616 2.66602 23.02 2.89996 22.2853 3.34267L19.684 4.93334C16.5907 6.82267 13.1773 7.71867 9.888 8.24801C7.848 8.57601 5.65067 8.78534 3.59333 8.98267L2.692 9.06934V9.06801Z" fill="white"/>
<path fill-rule="evenodd" clip-rule="evenodd" d="M21.332 36V12H26.6653V36H21.332Z" fill="white"/>
<path fill-rule="evenodd" clip-rule="evenodd" d="M36 26.6667H12V21.3333H36V26.6667Z" fill="white"/>
</svg>
