<svg width="38" height="44" viewBox="0 0 38 44" fill="none" xmlns="http://www.w3.org/2000/svg">
<g clip-path="url(#clip0_5_33)">
<path d="M11.8162 14.8463L12.0695 14.8243C12.1613 14.8141 12.249 14.7806 12.3247 14.7272L12.3229 14.729C12.5653 15.576 12.8621 16.467 13.233 17.4002C13.709 18.6212 14.1776 19.624 14.7024 20.592L14.63 20.4453C14.5866 21.1127 14.5341 21.7983 14.4653 22.462C14.4352 22.8535 14.3568 23.2397 14.2319 23.6115L14.241 23.5785C14.2192 23.5877 14.1885 27.3918 14.1885 27.3918C14.1891 28.5722 14.5818 29.718 15.3033 30.6448C16.0247 31.5717 17.033 32.2256 18.1658 32.5013L18.202 32.5087C18.2523 32.3763 18.3409 32.2624 18.4562 32.1819C18.5714 32.1015 18.708 32.0581 18.848 32.0577H19.8867C20.0254 32.0595 20.1605 32.1028 20.275 32.182C20.3896 32.2613 20.4786 32.373 20.5309 32.5032L20.5327 32.5087C21.6751 32.2411 22.6949 31.5906 23.4269 30.6626C24.159 29.7346 24.5604 28.5834 24.5661 27.3955V27.3937C24.5661 27.3937 24.5028 23.606 24.4702 23.5803C24.3623 23.2259 24.2884 22.8619 24.2494 22.4932L24.2476 22.4657C24.1843 21.7983 24.1427 21.1292 24.083 20.449C24.5299 19.6313 24.9986 18.6303 25.4111 17.5982L25.4799 17.4038C25.8509 16.4707 26.1386 15.5815 26.3901 14.7327C26.4644 14.7861 26.551 14.8196 26.6416 14.8298H26.6434L26.8986 14.8518C27.2062 14.8848 27.4776 14.6282 27.503 14.2303L27.778 10.6902V10.6865C27.7778 10.544 27.7265 10.4065 27.6336 10.2996C27.5407 10.1926 27.4126 10.1236 27.2731 10.1053H27.2388C27.4797 8.26188 27.3305 6.38759 26.8009 4.60715L26.8244 4.70065C26.314 3.55247 25.5377 2.54598 24.5615 1.76659C23.5853 0.987201 22.4379 0.457917 21.2167 0.223653L21.1696 0.21632C20.5775 0.0960494 19.9764 0.0273542 19.3728 0.0109863H19.3348C18.7033 0.022443 18.0744 0.094882 17.4565 0.22732L17.5216 0.21632C16.3011 0.445854 15.1525 0.968276 14.1722 1.73986C13.1918 2.51144 12.4081 3.50972 11.8868 4.65115L11.8669 4.70065C11.3459 6.47423 11.207 8.34049 11.4597 10.1732L11.4525 10.1053C11.3127 10.1206 11.1833 10.1876 11.0892 10.2935C10.995 10.3994 10.9427 10.5367 10.9422 10.6792V10.692L11.2172 14.2322C11.2426 14.6392 11.5176 14.8848 11.8144 14.8518L11.8162 14.8463Z" fill="white"/>
<path d="M38.7528 38.2763C38.6261 32.703 38.076 31.4417 37.7792 30.5873C37.6616 30.2445 37.5657 27.9272 33.7874 26.4238C31.4712 25.4998 28.4819 25.4815 25.9522 24.398V27.412C25.9496 28.9571 25.4166 30.4533 24.4447 31.644C23.4728 32.8347 22.1224 33.646 20.625 33.9387L20.5833 33.946C20.5562 34.1086 20.4736 34.2564 20.3499 34.3636C20.2262 34.4708 20.0693 34.5307 19.9066 34.5327H19.874V36.806C19.874 37.8728 20.2923 38.8959 21.0368 39.6502C21.7814 40.4045 22.7912 40.8283 23.8441 40.8283C24.897 40.8283 25.9068 40.4045 26.6514 39.6502C27.3959 38.8959 27.8142 37.8728 27.8142 36.806V35.2183C27.2677 35.1371 26.7695 34.8558 26.4139 34.4276C26.0583 33.9995 25.8699 33.4541 25.8843 32.8947C25.8988 32.3352 26.1151 31.8006 26.4923 31.3918C26.8696 30.9831 27.3816 30.7286 27.9315 30.6765C28.4815 30.6244 29.0312 30.7782 29.4767 31.109C29.9222 31.4398 30.2326 31.9245 30.3492 32.4715C30.4658 33.0185 30.3805 33.5899 30.1095 34.0774C29.8384 34.565 29.4003 34.935 28.8782 35.1175L28.8619 35.123V36.8922C28.8619 38.241 28.3331 39.5345 27.3917 40.4883C26.4503 41.442 25.1736 41.9778 23.8423 41.9778C22.511 41.9778 21.2342 41.442 20.2929 40.4883C19.3515 39.5345 18.8227 38.241 18.8227 36.8922V36.8005V36.8042V34.5107C18.6677 34.5 18.5209 34.4366 18.4059 34.3308C18.291 34.2249 18.2147 34.0829 18.1893 33.9277V33.924C16.6902 33.6343 15.3372 32.8255 14.362 31.6362C13.3868 30.4468 12.8502 28.9509 12.844 27.4047V24.3668C10.3034 25.4723 7.296 25.4943 4.96714 26.4202C1.178 27.9217 1.09114 30.2335 0.975335 30.5818C0.685811 31.4398 0.128478 32.6957 0.00181105 38.2727C-0.0199032 39.006 0.00181115 40.1298 2.1841 41.1125C6.93591 43.0008 13.0575 43.5875 19.0923 44.0092H19.6713C25.7188 43.5912 31.8313 43.0063 36.5795 41.1125C38.7528 40.1353 38.7727 39.0188 38.7528 38.2782V38.2763ZM12.1871 36.003H9.93248V38.2965H8.322V36.0103H6.06733V34.3787H8.322V32.0943H9.93248V34.3787H12.1871V36.003Z" fill="white"/>
<path d="M29.3595 32.9358V32.934C29.3593 32.6068 29.2308 32.2932 29.0024 32.062C28.7739 31.8308 28.4642 31.701 28.1413 31.7011C27.8184 31.7012 27.5087 31.8312 27.2804 32.0626C27.0521 32.294 26.9239 32.6078 26.9239 32.9349C26.9239 33.2621 27.0521 33.5758 27.2804 33.8072C27.5087 34.0386 27.8184 34.1686 28.1413 34.1687C28.4642 34.1689 28.7739 34.0391 29.0024 33.8078C29.2308 33.5766 29.3593 33.263 29.3595 32.9358Z" fill="white"/>
</g>
<defs>
<clipPath id="clip0_5_33">
<rect width="38" height="44" fill="white"/>
</clipPath>
</defs>
</svg>
