<svg width="90" height="90" viewBox="0 0 90 90" fill="none" xmlns="http://www.w3.org/2000/svg">
<circle cx="45" cy="45" r="45" fill="#30C3B0"/>
<path fill-rule="evenodd" clip-rule="evenodd" d="M30.7917 26.625C30.4491 26.625 30.1206 26.7611 29.8783 27.0033C29.6361 27.2456 29.5 27.5741 29.5 27.9167V67.9584C29.5 68.3009 29.6361 68.6295 29.8783 68.8717C30.1206 69.1139 30.4491 69.25 30.7917 69.25H59.2083C59.5509 69.25 59.8794 69.1139 60.1217 68.8717C60.3639 68.6295 60.5 68.3009 60.5 67.9584V27.9167C60.5 27.5741 60.3639 27.2456 60.1217 27.0033C59.8794 26.7611 59.5509 26.625 59.2083 26.625H51.997V24.0417H59.2083C60.236 24.0417 61.2217 24.4499 61.9484 25.1766C62.6751 25.9034 63.0833 26.889 63.0833 27.9167V67.9584C63.0833 68.9861 62.6751 69.9717 61.9484 70.6984C61.2217 71.4251 60.236 71.8334 59.2083 71.8334H30.7917C29.764 71.8334 28.7783 71.4251 28.0516 70.6984C27.3249 69.9717 26.9167 68.9861 26.9167 67.9584V27.9167C26.9167 26.889 27.3249 25.9034 28.0516 25.1766C28.7783 24.4499 29.764 24.0417 30.7917 24.0417H38.003V26.625H30.7917Z" fill="white"/>
<path fill-rule="evenodd" clip-rule="evenodd" d="M35.9583 24.0417C35.9583 23.014 36.3666 22.0284 37.0933 21.3016C37.82 20.5749 38.8056 20.1667 39.8333 20.1667H50.1667C51.1944 20.1667 52.18 20.5749 52.9067 21.3016C53.6334 22.0284 54.0417 23.014 54.0417 24.0417V26.625C54.0417 27.6527 53.6334 28.6384 52.9067 29.3651C52.18 30.0918 51.1944 30.5 50.1667 30.5H39.8333C38.8056 30.5 37.82 30.0918 37.0933 29.3651C36.3666 28.6384 35.9583 27.6527 35.9583 26.625V24.0417ZM39.8333 22.75C39.4908 22.75 39.1622 22.8861 38.92 23.1283C38.6777 23.3706 38.5417 23.6991 38.5417 24.0417V26.625C38.5417 26.9676 38.6777 27.2961 38.92 27.5384C39.1622 27.7806 39.4908 27.9167 39.8333 27.9167H50.1667C50.5092 27.9167 50.8378 27.7806 51.08 27.5384C51.3222 27.2961 51.4583 26.9676 51.4583 26.625V24.0417C51.4583 23.6991 51.3222 23.3706 51.08 23.1283C50.8378 22.8861 50.5092 22.75 50.1667 22.75H39.8333Z" fill="white"/>
<path fill-rule="evenodd" clip-rule="evenodd" d="M33.375 42.125C33.375 41.7825 33.5111 41.4539 33.7533 41.2117C33.9956 40.9695 34.3241 40.8334 34.6667 40.8334H43.7083C44.0509 40.8334 44.3794 40.9695 44.6217 41.2117C44.8639 41.4539 45 41.7825 45 42.125C45 42.4676 44.8639 42.7962 44.6217 43.0384C44.3794 43.2806 44.0509 43.4167 43.7083 43.4167H34.6667C34.3241 43.4167 33.9956 43.2806 33.7533 43.0384C33.5111 42.7962 33.375 42.4676 33.375 42.125Z" fill="white"/>
<path fill-rule="evenodd" clip-rule="evenodd" d="M33.375 35.6667C33.375 35.3241 33.5111 34.9956 33.7533 34.7533C33.9956 34.5111 34.3241 34.375 34.6667 34.375H54.6875C55.0301 34.375 55.3586 34.5111 55.6008 34.7533C55.8431 34.9956 55.9792 35.3241 55.9792 35.6667C55.9792 36.0092 55.8431 36.3378 55.6008 36.58C55.3586 36.8222 55.0301 36.9583 54.6875 36.9583H34.6667C34.3241 36.9583 33.9956 36.8222 33.7533 36.58C33.5111 36.3378 33.375 36.0092 33.375 35.6667Z" fill="white"/>
<path fill-rule="evenodd" clip-rule="evenodd" d="M35.9583 52.4583V55.0417H38.5417V52.4583H35.9583ZM34.6667 49.875C34.3241 49.875 33.9956 50.0111 33.7533 50.2533C33.5111 50.4956 33.375 50.8241 33.375 51.1667V56.3333C33.375 56.6759 33.5111 57.0044 33.7533 57.2467C33.9956 57.4889 34.3241 57.625 34.6667 57.625H39.8333C40.1759 57.625 40.5044 57.4889 40.7467 57.2467C40.9889 57.0044 41.125 56.6759 41.125 56.3333V51.1667C41.125 50.8241 40.9889 50.4956 40.7467 50.2533C40.5044 50.0111 40.1759 49.875 39.8333 49.875H34.6667Z" fill="white"/>
<path fill-rule="evenodd" clip-rule="evenodd" d="M50.1667 52.4584C50.341 52.4663 50.5151 52.4389 50.6785 52.3777C50.8419 52.3166 50.9912 52.2229 51.1175 52.1025C51.2437 51.982 51.3442 51.8372 51.4129 51.6768C51.4817 51.5165 51.5172 51.3438 51.5174 51.1693C51.5175 50.9948 51.4824 50.8221 51.4139 50.6616C51.3455 50.5011 51.2453 50.3561 51.1193 50.2354C50.9933 50.1147 50.8442 50.0207 50.6809 49.9592C50.5176 49.8978 50.3436 49.87 50.1692 49.8776C49.837 49.8921 49.5231 50.0343 49.293 50.2744C49.063 50.5145 48.9344 50.8342 48.934 51.1667C48.9337 51.4993 49.0617 51.8192 49.2913 52.0598C49.5209 52.3004 49.8344 52.4432 50.1667 52.4584V52.4584ZM50.1667 55.0417C51.1944 55.0417 52.18 54.6334 52.9067 53.9067C53.6334 53.18 54.0417 52.1944 54.0417 51.1667C54.0417 50.139 53.6334 49.1534 52.9067 48.4266C52.18 47.6999 51.1944 47.2917 50.1667 47.2917C49.1389 47.2917 48.1533 47.6999 47.4266 48.4266C46.6999 49.1534 46.2917 50.139 46.2917 51.1667C46.2917 52.1944 46.6999 53.18 47.4266 53.9067C48.1533 54.6334 49.1389 55.0417 50.1667 55.0417V55.0417Z" fill="white"/>
<path fill-rule="evenodd" clip-rule="evenodd" d="M45 60.57C45.0226 60.5436 45.0463 60.5182 45.071 60.4938C45.2829 60.2872 45.691 60.0133 46.3317 59.7408C47.6234 59.1918 49.2173 58.9167 50.1667 58.9167C51.116 58.9167 52.71 59.1918 54.0016 59.7408C54.6423 60.012 55.0505 60.2872 55.2623 60.4938C55.287 60.5178 55.3107 60.5428 55.3333 60.5687V62.7917H45V60.57ZM50.1667 56.3334C47.5795 56.3334 42.4167 57.7103 42.4167 60.4435V65.375H57.9167V60.4435C57.9167 57.7103 52.7539 56.3334 50.1667 56.3334Z" fill="white"/>
</svg>
