<svg width="90" height="90" viewBox="0 0 90 90" fill="none" xmlns="http://www.w3.org/2000/svg">
<circle cx="45" cy="45" r="45" fill="#30C3B0"/>
<path d="M55.5 23.25C48.745 23.25 43.25 28.7468 43.25 35.5C43.25 42.2532 48.745 47.75 55.5 47.75C62.255 47.75 67.75 42.2532 67.75 35.5C67.75 28.7468 62.255 23.25 55.5 23.25ZM55.5 26.75C60.3247 26.75 64.25 30.6753 64.25 35.5C64.25 37.2797 63.7075 38.9317 62.7905 40.316L50.684 28.2095C52.1102 27.2585 53.7858 26.7507 55.5 26.75V26.75ZM48.2095 30.684L60.316 42.794C58.8894 43.7437 57.2138 44.2502 55.5 44.25C50.6753 44.25 46.75 40.3247 46.75 35.5C46.75 33.7203 47.2925 32.0683 48.2095 30.684ZM34.5 42.5C27.745 42.5 22.25 47.9968 22.25 54.75C22.25 61.5032 27.745 67 34.5 67C41.255 67 46.75 61.5032 46.75 54.75C46.75 47.9968 41.255 42.5 34.5 42.5ZM34.5 46C36.5158 46.003 38.469 46.7009 40.0304 47.976C41.5917 49.2511 42.6658 51.0254 43.0715 53H25.9285C26.7405 49.01 30.2755 46 34.5 46ZM25.9285 56.5H43.0715C42.6658 58.4746 41.5917 60.2489 40.0304 61.524C38.469 62.7991 36.5158 63.497 34.5 63.5C32.4842 63.497 30.531 62.7991 28.9696 61.524C27.4083 60.2489 26.3342 58.4746 25.9285 56.5V56.5Z" fill="white"/>
</svg>
