<svg width="90" height="90" viewBox="0 0 90 90" fill="none" xmlns="http://www.w3.org/2000/svg">
<circle cx="45" cy="45" r="45" fill="#30C3B0"/>
<path d="M40.8333 43C45.4375 43 49.1667 39.2708 49.1667 34.6666C49.1667 30.0625 45.4375 26.3333 40.8333 26.3333C36.2292 26.3333 32.5 30.0625 32.5 34.6666C32.5 39.2708 36.2292 43 40.8333 43ZM40.8333 30.5C43.125 30.5 45 32.375 45 34.6666C45 36.9583 43.125 38.8333 40.8333 38.8333C38.5417 38.8333 36.6667 36.9583 36.6667 34.6666C36.6667 32.375 38.5417 30.5 40.8333 30.5ZM28.3333 55.5C28.7917 54 35.2292 51.3333 40.8333 51.3333C40.8333 49.875 41.1042 48.4791 41.5625 47.1875C35.875 46.9791 24.1667 49.8125 24.1667 55.5V59.6666H44.0417C42.9583 58.4583 42.1042 57.0625 41.5625 55.5H28.3333ZM60.4792 55.5416C61.2292 54.3125 61.6667 52.875 61.6667 51.3333C61.6667 46.7291 57.9375 43 53.3333 43C48.7292 43 45 46.7291 45 51.3333C45 55.9375 48.7292 59.6666 53.3333 59.6666C54.875 59.6666 56.3125 59.2083 57.5417 58.4791L62.8958 63.8333L65.8333 60.8958C62.7083 57.7708 64.1875 59.2291 60.4792 55.5416ZM53.3333 55.5C51.0417 55.5 49.1667 53.625 49.1667 51.3333C49.1667 49.0416 51.0417 47.1666 53.3333 47.1666C55.625 47.1666 57.5 49.0416 57.5 51.3333C57.5 53.625 55.625 55.5 53.3333 55.5Z" fill="white"/>
</svg>
