<svg width="90" height="90" viewBox="0 0 90 90" fill="none" xmlns="http://www.w3.org/2000/svg">
<circle cx="45" cy="45" r="45" fill="#30C3B0"/>
<path d="M65.4829 39.3022C64.3225 36.328 62.4739 34.0242 60.1323 32.6217C59.5922 33.66 58.9478 34.6405 58.2091 35.5483C58.2133 35.5507 58.2176 35.5528 58.2217 35.5552C61.7087 37.5593 63.7367 42.6807 63.1535 48.0098C62.1874 56.8387 59.5059 62.8895 55.6027 65.0477C53.0652 66.4507 49.9007 66.2508 46.1965 64.4545L45.8347 64.2795H43.1671L42.8054 64.4545C39.1012 66.2511 35.9367 66.4507 33.3992 65.0477C29.4961 62.8895 26.8148 56.8387 25.8483 48.0098C25.2652 42.6807 27.2933 37.5592 30.7802 35.5552C31.9034 34.9137 33.1771 34.5827 34.4705 34.5962C37.1111 34.5962 40.1543 35.8333 43.4611 38.2773L43.579 38.3648C43.579 38.3648 48.3459 37.7852 50.2344 36.9278C55.9242 34.3447 57.1797 30.2389 57.4024 29.6813C58.0587 28.0524 58.3867 26.3098 58.3676 24.5537C58.3484 22.7976 57.9824 21.0625 57.2907 19.4483L56.8452 18.3361L55.6477 18.3481C53.7539 18.3688 51.886 18.7899 50.1665 19.5837C48.4469 20.3775 46.9148 21.526 45.6706 22.9539C44.4264 24.3817 43.4983 26.0566 42.9472 27.8685C42.3961 29.6804 42.2345 31.5884 42.473 33.4672C40.4058 32.3089 38.3957 31.5703 36.4701 31.2644C33.7419 30.8307 31.2407 31.2535 29.0361 32.5207C26.6147 33.9124 24.7069 36.2574 23.519 39.3019C22.439 42.0699 22.0306 45.2975 22.369 48.3903C23.4783 58.5273 26.7067 65.3464 31.7054 68.1107C33.3478 69.0219 35.1974 69.4944 37.0757 69.4825C39.2178 69.4825 41.5195 68.9144 43.9636 67.779H45.0387C49.6756 69.9329 53.798 70.0451 57.2965 68.1107C62.2949 65.3466 65.5238 58.5275 66.6331 48.3903C66.9713 45.2978 66.5629 42.0701 65.4829 39.3022V39.3022ZM51.8771 22.6529C52.7042 22.2968 53.5761 22.0553 54.4685 21.9349C54.865 23.306 54.9613 24.7463 54.7509 26.1579C54.5405 27.5695 54.0283 28.9192 53.2492 30.115C52.4702 31.3108 51.4425 32.3247 50.2363 33.0875C49.0301 33.8503 47.6736 34.3442 46.2593 34.5355C45.5879 32.2105 45.7881 29.7203 46.8225 27.5325C47.8569 25.3446 49.6542 23.6095 51.8771 22.6529V22.6529Z" fill="white"/>
</svg>
