<svg width="36" height="46" viewBox="0 0 36 46" fill="none" xmlns="http://www.w3.org/2000/svg">
<path fill-rule="evenodd" clip-rule="evenodd" d="M7.1875 4.3125C7.1875 3.36767 7.56283 2.46153 8.23093 1.79343C8.89903 1.12533 9.80517 0.75 10.75 0.75H20.25C21.1948 0.75 22.101 1.12533 22.7691 1.79343C23.4372 2.46153 23.8125 3.36767 23.8125 4.3125H27.375C28.3198 4.3125 29.226 4.68783 29.8941 5.35593C30.5622 6.02403 30.9375 6.93017 30.9375 7.875V26.875H28.5625V7.875C28.5625 7.56006 28.4374 7.25801 28.2147 7.03531C27.992 6.81261 27.6899 6.6875 27.375 6.6875H23.8125C23.8125 7.63233 23.4372 8.53847 22.7691 9.20657C22.101 9.87467 21.1948 10.25 20.25 10.25H10.75C9.80517 10.25 8.89903 9.87467 8.23093 9.20657C7.56283 8.53847 7.1875 7.63233 7.1875 6.6875H3.625C3.31006 6.6875 3.00801 6.81261 2.78531 7.03531C2.56261 7.25801 2.4375 7.56006 2.4375 7.875V41.125C2.4375 41.4399 2.56261 41.742 2.78531 41.9647C3.00801 42.1874 3.31006 42.3125 3.625 42.3125H15.5V44.6875H3.625C2.68017 44.6875 1.77403 44.3122 1.10593 43.6441C0.437833 42.976 0.0625 42.0698 0.0625 41.125V7.875C0.0625 6.93017 0.437833 6.02403 1.10593 5.35593C1.77403 4.68783 2.68017 4.3125 3.625 4.3125H7.1875ZM10.75 3.125C10.4351 3.125 10.133 3.25011 9.91031 3.47281C9.68761 3.69551 9.5625 3.99756 9.5625 4.3125V6.6875C9.5625 7.00244 9.68761 7.30449 9.91031 7.52719C10.133 7.74989 10.4351 7.875 10.75 7.875H20.25C20.5649 7.875 20.867 7.74989 21.0897 7.52719C21.3124 7.30449 21.4375 7.00244 21.4375 6.6875V4.3125C21.4375 3.99756 21.3124 3.69551 21.0897 3.47281C20.867 3.25011 20.5649 3.125 20.25 3.125H10.75ZM14.3125 15V18.5625H10.75V20.9375H14.3125V24.5H16.6875V20.9375H20.25V18.5625H16.6875V15H14.3125ZM15.5 31.2272V35.9772C15.5 36.2921 15.6251 36.5942 15.8478 36.8169C16.0705 37.0396 16.3726 37.1647 16.6875 37.1647H21.4375V34.7897H19.6859L21.1739 33.3908C21.8807 32.6745 22.758 32.1496 23.7233 31.8654C24.6887 31.5812 25.7104 31.547 26.6926 31.766C27.6748 31.9851 28.5852 32.4502 29.3383 33.1176C30.0915 33.7851 30.6626 34.633 30.9981 35.5817L33.2365 34.7897C32.7683 33.4678 31.9734 32.2858 30.9257 31.3537C29.878 30.4216 28.6115 29.7697 27.2441 29.4586C25.8767 29.1475 24.4528 29.1874 23.105 29.5744C21.7571 29.9615 20.5291 30.6833 19.5351 31.6725L17.875 33.2317V31.2272H15.5ZM29.3546 37.9567H34.1046C34.4195 37.9567 34.7216 38.0819 34.9443 38.3046C35.167 38.5273 35.2921 38.8293 35.2921 39.1442V43.8942H32.9171V41.8898L31.2569 43.4489C30.2631 44.4385 29.0351 45.1605 27.6872 45.5478C26.3392 45.935 24.9153 45.975 23.5477 45.6638C22.1802 45.3527 20.9137 44.7007 19.866 43.7684C18.8183 42.8361 18.0235 41.6538 17.5556 40.3317L19.794 39.5397C20.1295 40.4884 20.7006 41.3364 21.4537 42.0038C22.2068 42.6713 23.1172 43.1364 24.0994 43.3554C25.0816 43.5744 26.1034 43.5403 27.0687 43.2561C28.0341 42.9718 28.9114 42.4469 29.6182 41.7306L31.1061 40.3317H29.3546V37.9567Z" fill="white"/>
</svg>
