<svg width="100" height="100" viewBox="0 0 100 100" fill="none" xmlns="http://www.w3.org/2000/svg">
<circle cx="50" cy="50" r="50" fill="#FFDF44"/>
<path d="M62.115 31C54 31 50 39 50 39C50 39 46 31 37.885 31C31.29 31 26.0675 36.5175 26 43.1012C25.8625 56.7675 36.8412 66.4863 48.875 74.6538C49.2068 74.8795 49.5987 75.0002 50 75.0002C50.4013 75.0002 50.7932 74.8795 51.125 74.6538C63.1575 66.4863 74.1362 56.7675 74 43.1012C73.9325 36.5175 68.71 31 62.115 31V31Z" stroke="#383838" stroke-width="3" stroke-linecap="round" stroke-linejoin="round"/>
<path d="M24 53H38L44 41L50 61L56 49L60 57H76" stroke="#383838" stroke-width="3" stroke-linecap="round" stroke-linejoin="round"/>
</svg>
