<svg width="100" height="100" viewBox="0 0 100 100" fill="none" xmlns="http://www.w3.org/2000/svg">
<circle cx="50" cy="50" r="50" fill="#FFDF44"/>
<path d="M29.0625 60.6875H71.9375V63.75H29.0625V60.6875Z" fill="#383838"/>
<path d="M29.0625 66.8125H71.9375V69.875H29.0625V66.8125Z" fill="#383838"/>
<path d="M62.75 42.3125C62.1443 42.3125 61.5522 42.4921 61.0486 42.8286C60.5449 43.1651 60.1524 43.6434 59.9206 44.203C59.6888 44.7626 59.6282 45.3784 59.7463 45.9725C59.8645 46.5665 60.1562 47.1122 60.5845 47.5405C61.0128 47.9688 61.5585 48.2605 62.1525 48.3787C62.7466 48.4968 63.3624 48.4362 63.922 48.2044C64.4816 47.9726 64.9599 47.5801 65.2964 47.0764C65.6329 46.5728 65.8125 45.9807 65.8125 45.375C65.8125 44.5628 65.4898 43.7838 64.9155 43.2095C64.3412 42.6352 63.5622 42.3125 62.75 42.3125Z" fill="#383838"/>
<path d="M50.5 51.5C49.2886 51.5 48.1044 51.1408 47.0971 50.4678C46.0899 49.7947 45.3048 48.8381 44.8412 47.7189C44.3777 46.5997 44.2564 45.3682 44.4927 44.1801C44.729 42.9919 45.3124 41.9006 46.169 41.044C47.0256 40.1874 48.1169 39.604 49.3051 39.3677C50.4932 39.1314 51.7247 39.2527 52.8439 39.7162C53.9631 40.1798 54.9197 40.9649 55.5928 41.9721C56.2658 42.9794 56.625 44.1636 56.625 45.375C56.623 46.9988 55.977 48.5556 54.8288 49.7038C53.6806 50.852 52.1238 51.498 50.5 51.5ZM50.5 42.3125C49.8943 42.3125 49.3022 42.4921 48.7986 42.8286C48.2949 43.1651 47.9024 43.6434 47.6706 44.203C47.4388 44.7626 47.3782 45.3784 47.4963 45.9725C47.6145 46.5665 47.9062 47.1122 48.3345 47.5405C48.7628 47.9688 49.3085 48.2605 49.9025 48.3787C50.4966 48.4968 51.1124 48.4362 51.672 48.2044C52.2316 47.9726 52.7099 47.5801 53.0464 47.0764C53.3829 46.5728 53.5625 45.9807 53.5625 45.375C53.5617 44.563 53.2388 43.7845 52.6646 43.2104C52.0905 42.6362 51.312 42.3133 50.5 42.3125Z" fill="#383838"/>
<path d="M38.25 42.3125C37.6443 42.3125 37.0522 42.4921 36.5486 42.8286C36.0449 43.1651 35.6524 43.6434 35.4206 44.203C35.1888 44.7626 35.1282 45.3784 35.2463 45.9725C35.3645 46.5665 35.6562 47.1122 36.0845 47.5405C36.5128 47.9688 37.0585 48.2605 37.6525 48.3787C38.2466 48.4968 38.8624 48.4362 39.422 48.2044C39.9816 47.9726 40.4599 47.5801 40.7964 47.0764C41.1329 46.5728 41.3125 45.9807 41.3125 45.375C41.3125 44.5628 40.9898 43.7838 40.4155 43.2095C39.8412 42.6352 39.0622 42.3125 38.25 42.3125Z" fill="#383838"/>
<path d="M68.875 57.625H32.125C31.3134 57.623 30.5356 57.2997 29.9617 56.7258C29.3878 56.1519 29.0645 55.3741 29.0625 54.5625V36.1875C29.0645 35.3759 29.3878 34.5981 29.9617 34.0242C30.5356 33.4503 31.3134 33.127 32.125 33.125H68.875C69.6866 33.127 70.4644 33.4503 71.0383 34.0242C71.6122 34.5981 71.9355 35.3759 71.9375 36.1875V54.5625C71.9363 55.3744 71.6132 56.1526 71.0392 56.7267C70.4651 57.3007 69.6869 57.6238 68.875 57.625ZM68.875 36.1875H32.125V54.5625H68.875V36.1875Z" fill="#383838"/>
</svg>
