<svg width="100" height="100" viewBox="0 0 100 100" fill="none" xmlns="http://www.w3.org/2000/svg">
<circle cx="50" cy="50" r="50" fill="#FFDF44"/>
<path d="M34.6783 47.055C33.54 46.325 32.7067 45.1466 32.905 43.9166C32.9246 43.795 32.971 43.6792 33.0407 43.5776C33.1105 43.476 33.2019 43.3912 33.3084 43.3292C33.4148 43.2672 33.5337 43.2295 33.6565 43.219C33.7793 43.2085 33.9029 43.2253 34.0183 43.2683C37.0483 44.3933 40.4283 43.695 43.4217 40.855C43.5232 40.7586 43.6474 40.6894 43.7827 40.6537C43.918 40.618 44.0602 40.6169 44.196 40.6506C44.3319 40.6843 44.457 40.7517 44.56 40.8466C44.6629 40.9414 44.7403 41.0607 44.785 41.1933C45.17 42.3416 44.825 43.89 43.985 45.1616C43.488 45.9128 42.8363 46.5491 42.0734 47.028C41.3105 47.5068 40.4542 47.8172 39.5617 47.9383C37.565 48.2333 35.8683 47.8166 34.6783 47.055Z" fill="#383838"/>
<path d="M64.59 47.055C65.7283 46.325 66.5633 45.1466 66.365 43.9166C66.3454 43.795 66.299 43.6792 66.2293 43.5776C66.1596 43.476 66.0681 43.3912 65.9617 43.3292C65.8552 43.2672 65.7363 43.2295 65.6135 43.219C65.4907 43.2085 65.3672 43.2253 65.2517 43.2683C62.2217 44.3933 58.8417 43.695 55.8483 40.855C55.7468 40.7586 55.6227 40.6894 55.4873 40.6537C55.352 40.618 55.2098 40.6169 55.074 40.6506C54.9381 40.6843 54.813 40.7517 54.71 40.8466C54.6071 40.9414 54.5297 41.0607 54.485 41.1933C54.0983 42.3416 54.445 43.89 55.285 45.1616C55.7818 45.9126 56.4333 46.5488 57.1959 47.0276C57.9584 47.5065 58.8145 47.817 59.7067 47.9383C61.705 48.2333 63.4 47.8166 64.59 47.055Z" fill="#383838"/>
<path fill-rule="evenodd" clip-rule="evenodd" d="M65.43 61.6666C62.5633 55.73 56.73 51.6666 50 51.6666C43.27 51.6666 37.4366 55.73 34.57 61.6666C33.7883 63.2833 35.0966 65 36.8933 65H63.1066C64.9033 65 66.2116 63.2833 65.43 61.6666ZM50 55C54.7833 55 59.0883 57.5916 61.63 61.6666H38.37C40.9133 57.5916 45.2166 55 50 55Z" fill="#383838"/>
<path fill-rule="evenodd" clip-rule="evenodd" d="M80 50C80 66.5683 66.5683 80 50 80C33.4317 80 20 66.5683 20 50C20 33.4317 33.4317 20 50 20C66.5683 20 80 33.4317 80 50ZM76.6667 50C76.6667 64.7283 64.7283 76.6667 50 76.6667C35.2717 76.6667 23.3333 64.7283 23.3333 50C23.3333 35.2717 35.2717 23.3333 50 23.3333C64.7283 23.3333 76.6667 35.2717 76.6667 50Z" fill="#383838"/>
</svg>
