<svg width="100" height="100" viewBox="0 0 100 100" fill="none" xmlns="http://www.w3.org/2000/svg">
<circle cx="50" cy="50" r="50" fill="#FFDF44"/>
<path fill-rule="evenodd" clip-rule="evenodd" d="M50 29.9583C38.9308 29.9583 29.9583 38.9308 29.9583 50C29.9583 61.0692 38.9308 70.0417 50 70.0417C61.0691 70.0417 70.0416 61.0692 70.0416 50C70.0416 38.9308 61.0691 29.9583 50 29.9583ZM26.875 50C26.875 37.2288 37.2288 26.875 50 26.875C62.7712 26.875 73.125 37.2288 73.125 50C73.125 62.7712 62.7712 73.125 50 73.125C37.2288 73.125 26.875 62.7712 26.875 50Z" fill="#383838"/>
<path d="M46.9167 54.6251C46.9167 53.8073 46.5918 53.0231 46.0136 52.4448C45.4353 51.8666 44.6511 51.5417 43.8333 51.5417C43.0156 51.5417 42.2313 51.8666 41.6531 52.4448C41.0748 53.0231 40.75 53.8073 40.75 54.6251C40.75 55.4428 41.0748 56.2271 41.6531 56.8053C42.2313 57.3836 43.0156 57.7084 43.8333 57.7084C44.6511 57.7084 45.4353 57.3836 46.0136 56.8053C46.5918 56.2271 46.9167 55.4428 46.9167 54.6251Z" fill="#383838"/>
<path d="M51.5416 42.2918C51.5416 41.4741 51.2168 40.6898 50.6386 40.1116C50.0603 39.5333 49.2761 39.2085 48.4583 39.2085C47.6406 39.2085 46.8563 39.5333 46.2781 40.1116C45.6998 40.6898 45.375 41.4741 45.375 42.2918C45.375 43.1096 45.6998 43.8938 46.2781 44.4721C46.8563 45.0503 47.6406 45.3752 48.4583 45.3752C49.2761 45.3752 50.0603 45.0503 50.6386 44.4721C51.2168 43.8938 51.5416 43.1096 51.5416 42.2918Z" fill="#383838"/>
<path d="M60.7916 53.0833C60.7916 52.2656 60.4668 51.4813 59.8886 50.9031C59.3103 50.3249 58.5261 50 57.7083 50C56.8906 50 56.1063 50.3249 55.5281 50.9031C54.9498 51.4813 54.625 52.2656 54.625 53.0833C54.625 53.9011 54.9498 54.6853 55.5281 55.2636C56.1063 55.8418 56.8906 56.1667 57.7083 56.1667C58.5261 56.1667 59.3103 55.8418 59.8886 55.2636C60.4668 54.6853 60.7916 53.9011 60.7916 53.0833Z" fill="#383838"/>
<path fill-rule="evenodd" clip-rule="evenodd" d="M45.375 20.7084C45.375 20.2995 45.5374 19.9074 45.8265 19.6183C46.1156 19.3292 46.5078 19.1667 46.9167 19.1667H53.0833C53.4922 19.1667 53.8843 19.3292 54.1734 19.6183C54.4626 19.9074 54.625 20.2995 54.625 20.7084C54.625 21.1173 54.4626 21.5094 54.1734 21.7985C53.8843 22.0877 53.4922 22.2501 53.0833 22.2501H51.5417V31.5001C51.5417 31.909 51.3792 32.3011 51.0901 32.5902C50.801 32.8793 50.4089 33.0417 50 33.0417C49.5911 33.0417 49.199 32.8793 48.9099 32.5902C48.6207 32.3011 48.4583 31.909 48.4583 31.5001V22.2501H46.9167C46.5078 22.2501 46.1156 22.0877 45.8265 21.7985C45.5374 21.5094 45.375 21.1173 45.375 20.7084Z" fill="#383838"/>
<path fill-rule="evenodd" clip-rule="evenodd" d="M50 66.9585C50.4089 66.9585 50.801 67.1209 51.0901 67.41C51.3792 67.6992 51.5417 68.0913 51.5417 68.5002V77.7502H53.0833C53.4922 77.7502 53.8843 77.9126 54.1734 78.2017C54.4626 78.4908 54.625 78.883 54.625 79.2918C54.625 79.7007 54.4626 80.0928 54.1734 80.382C53.8843 80.6711 53.4922 80.8335 53.0833 80.8335H46.9167C46.5078 80.8335 46.1156 80.6711 45.8265 80.382C45.5374 80.0928 45.375 79.7007 45.375 79.2918C45.375 78.883 45.5374 78.4908 45.8265 78.2017C46.1156 77.9126 46.5078 77.7502 46.9167 77.7502H48.4583V68.5002C48.4583 68.0913 48.6207 67.6992 48.9099 67.41C49.199 67.1209 49.5911 66.9585 50 66.9585Z" fill="#383838"/>
<path fill-rule="evenodd" clip-rule="evenodd" d="M32.5576 73.9822C32.2685 74.2713 31.8764 74.4336 31.4676 74.4336C31.0588 74.4336 30.6668 74.2713 30.3777 73.9822L26.0178 69.6224C25.8706 69.4802 25.7531 69.3101 25.6723 69.122C25.5915 68.9339 25.549 68.7316 25.5472 68.5269C25.5454 68.3222 25.5845 68.1192 25.662 67.9297C25.7395 67.7403 25.854 67.5681 25.9987 67.4234C26.1435 67.2786 26.3156 67.1642 26.5051 67.0866C26.6945 67.0091 26.8975 66.9701 27.1022 66.9719C27.3069 66.9737 27.5092 67.0162 27.6973 67.097C27.8854 67.1778 28.0555 67.2952 28.1977 67.4425L29.2877 68.5325L35.829 61.9912C35.9712 61.8439 36.1413 61.7265 36.3294 61.6457C36.5175 61.5649 36.7198 61.5223 36.9245 61.5206C37.1292 61.5188 37.3322 61.5578 37.5217 61.6353C37.7111 61.7128 37.8833 61.8273 38.028 61.9721C38.1728 62.1168 38.2872 62.2889 38.3648 62.4784C38.4423 62.6679 38.4813 62.8709 38.4795 63.0756C38.4777 63.2803 38.4352 63.4826 38.3544 63.6707C38.2736 63.8587 38.1561 64.0289 38.0089 64.1711L31.4676 70.7124L32.5576 71.8023C32.8466 72.0914 33.0089 72.4835 33.0089 72.8923C33.0089 73.3011 32.8466 73.6931 32.5576 73.9822Z" fill="#383838"/>
<path fill-rule="evenodd" clip-rule="evenodd" d="M61.9911 38.0091C61.8477 37.8659 61.734 37.6959 61.6564 37.5087C61.5789 37.3216 61.5389 37.121 61.5389 36.9184C61.5389 36.7158 61.5789 36.5152 61.6564 36.328C61.734 36.1408 61.8477 35.9708 61.9911 35.8276L68.5324 29.2879L67.4424 28.1979C67.2952 28.0557 67.1777 27.8856 67.0969 27.6975C67.0161 27.5094 66.9736 27.3071 66.9718 27.1024C66.97 26.8977 67.009 26.6947 67.0866 26.5053C67.1641 26.3158 67.2786 26.1437 67.4233 25.9989C67.5681 25.8542 67.7402 25.7397 67.9296 25.6622C68.1191 25.5847 68.3221 25.5456 68.5268 25.5474C68.7315 25.5492 68.9338 25.5917 69.1219 25.6725C69.31 25.7533 69.4801 25.8708 69.6223 26.018L73.9822 30.3779C74.263 30.6686 74.4184 31.058 74.4149 31.4623C74.4114 31.8665 74.2492 32.2531 73.9634 32.539C73.6775 32.8248 73.2909 32.987 72.8867 32.9905C72.4824 32.994 72.093 32.8386 71.8022 32.5578L70.7123 31.4678L64.171 38.0091C63.8819 38.2981 63.4898 38.4605 63.081 38.4605C62.6722 38.4605 62.2802 38.2981 61.9911 38.0091Z" fill="#383838"/>
<path fill-rule="evenodd" clip-rule="evenodd" d="M26.0178 32.5578C25.7288 32.2687 25.5665 31.8766 25.5665 31.4678C25.5665 31.059 25.7288 30.667 26.0178 30.3779L30.3777 26.018C30.5199 25.8708 30.69 25.7533 30.8781 25.6725C31.0662 25.5917 31.2685 25.5492 31.4732 25.5474C31.6779 25.5456 31.8809 25.5847 32.0703 25.6622C32.2598 25.7397 32.4319 25.8542 32.5767 25.9989C32.7214 26.1437 32.8359 26.3158 32.9134 26.5053C32.9909 26.6947 33.03 26.8977 33.0282 27.1024C33.0264 27.3071 32.9839 27.5094 32.9031 27.6975C32.8223 27.8856 32.7048 28.0557 32.5576 28.1979L31.4676 29.2879L38.0089 35.8292C38.2897 36.1199 38.4451 36.5094 38.4416 36.9136C38.4381 37.3178 38.276 37.7045 37.9901 37.9903C37.7043 38.2762 37.3176 38.4383 36.9134 38.4418C36.5092 38.4453 36.1198 38.2899 35.829 38.0091L29.2877 31.4678L28.1977 32.5578C27.9086 32.8468 27.5166 33.0091 27.1078 33.0091C26.699 33.0091 26.3069 32.8468 26.0178 32.5578Z" fill="#383838"/>
<path fill-rule="evenodd" clip-rule="evenodd" d="M61.9911 61.9912C62.2802 61.7022 62.6722 61.5398 63.081 61.5398C63.4898 61.5398 63.8819 61.7022 64.171 61.9912L70.7123 68.5325L71.8022 67.4425C71.9445 67.2953 72.1146 67.1778 72.3027 67.097C72.4908 67.0162 72.6931 66.9737 72.8978 66.9719C73.1025 66.9701 73.3055 67.0091 73.4949 67.0867C73.6844 67.1642 73.8565 67.2786 74.0013 67.4234C74.146 67.5682 74.2605 67.7403 74.338 67.9297C74.4155 68.1192 74.4545 68.3222 74.4528 68.5269C74.451 68.7316 74.4084 68.9339 74.3277 69.122C74.2469 69.3101 74.1294 69.4802 73.9822 69.6224L69.6223 73.9823C69.3316 74.2631 68.9421 74.4185 68.5379 74.415C68.1337 74.4115 67.747 74.2493 67.4612 73.9635C67.1754 73.6776 67.0132 73.291 67.0097 72.8868C67.0062 72.4825 67.1616 72.0931 67.4424 71.8023L68.5324 70.7124L61.9911 64.1726C61.8477 64.0295 61.734 63.8594 61.6564 63.6723C61.5789 63.4851 61.5389 63.2845 61.5389 63.0819C61.5389 62.8793 61.5789 62.6787 61.6564 62.4915C61.734 62.3044 61.8477 62.1344 61.9911 61.9912Z" fill="#383838"/>
<path fill-rule="evenodd" clip-rule="evenodd" d="M20.7083 54.625C20.2994 54.625 19.9073 54.4626 19.6182 54.1735C19.3291 53.8843 19.1667 53.4922 19.1667 53.0833V46.9167C19.1667 46.5078 19.3291 46.1157 19.6182 45.8265C19.9073 45.5374 20.2994 45.375 20.7083 45.375C21.1172 45.375 21.5093 45.5374 21.7984 45.8265C22.0876 46.1157 22.25 46.5078 22.25 46.9167V48.4583H31.5C31.9089 48.4583 32.301 48.6208 32.5901 48.9099C32.8792 49.199 33.0417 49.5911 33.0417 50C33.0417 50.4089 32.8792 50.801 32.5901 51.0901C32.301 51.3792 31.9089 51.5417 31.5 51.5417H22.25V53.0833C22.25 53.4922 22.0876 53.8843 21.7984 54.1735C21.5093 54.4626 21.1172 54.625 20.7083 54.625Z" fill="#383838"/>
<path fill-rule="evenodd" clip-rule="evenodd" d="M66.9583 50C66.9583 49.5911 67.1208 49.199 67.4099 48.9099C67.699 48.6208 68.0911 48.4583 68.5 48.4583H77.75V46.9167C77.75 46.5078 77.9124 46.1157 78.2015 45.8265C78.4907 45.5374 78.8828 45.375 79.2917 45.375C79.7005 45.375 80.0927 45.5374 80.3818 45.8265C80.6709 46.1157 80.8333 46.5078 80.8333 46.9167V53.0833C80.8333 53.4922 80.6709 53.8843 80.3818 54.1735C80.0927 54.4626 79.7005 54.625 79.2917 54.625C78.8828 54.625 78.4907 54.4626 78.2015 54.1735C77.9124 53.8843 77.75 53.4922 77.75 53.0833V51.5417H68.5C68.0911 51.5417 67.699 51.3792 67.4099 51.0901C67.1208 50.801 66.9583 50.4089 66.9583 50Z" fill="#383838"/>
</svg>
