<svg width="100" height="100" viewBox="0 0 100 100" fill="none" xmlns="http://www.w3.org/2000/svg">
<circle cx="50" cy="50" r="50" fill="#FFDF44"/>
<path fill-rule="evenodd" clip-rule="evenodd" d="M50.5 30.25C51.7763 30.25 53.0004 29.7429 53.9029 28.8404C54.8054 27.9379 55.3125 26.7138 55.3125 25.4375C55.3125 24.1611 54.8054 22.937 53.9029 22.0345C53.0004 21.132 51.7763 20.625 50.5 20.625C49.2236 20.625 47.9995 21.132 47.097 22.0345C46.1945 22.937 45.6875 24.1611 45.6875 25.4375C45.6875 26.7138 46.1945 27.9379 47.097 28.8404C47.9995 29.7429 49.2236 30.25 50.5 30.25ZM50.5 33.4583C52.6272 33.4583 54.6673 32.6132 56.1715 31.109C57.6757 29.6048 58.5208 27.5647 58.5208 25.4375C58.5208 23.3102 57.6757 21.2701 56.1715 19.7659C54.6673 18.2617 52.6272 17.4166 50.5 17.4166C48.3727 17.4166 46.3326 18.2617 44.8284 19.7659C43.3242 21.2701 42.4791 23.3102 42.4791 25.4375C42.4791 27.5647 43.3242 29.6048 44.8284 31.109C46.3326 32.6132 48.3727 33.4583 50.5 33.4583V33.4583Z" fill="#383838"/>
<path fill-rule="evenodd" clip-rule="evenodd" d="M39.8708 40.3788C40.6047 40.5185 41.2669 40.91 41.7431 41.4857C42.2193 42.0615 42.4796 42.7854 42.4791 43.5326V76.7709C42.4791 77.1963 42.6481 77.6044 42.949 77.9052C43.2498 78.206 43.6579 78.3751 44.0833 78.3751H44.2229C44.6233 78.3751 45.0093 78.2253 45.305 77.9552C45.6006 77.6851 45.7846 77.3141 45.8206 76.9153L47.2916 60.7292C47.2916 59.8783 47.6297 59.0623 48.2313 58.4606C48.833 57.8589 49.6491 57.5209 50.5 57.5209C51.3509 57.5209 52.1669 57.8589 52.7686 58.4606C53.3703 59.0623 53.7083 59.8783 53.7083 60.7292L55.1793 76.9153C55.2154 77.3141 55.3993 77.6851 55.6949 77.9552C55.9906 78.2253 56.3766 78.3751 56.7771 78.3751H56.9166C57.3421 78.3751 57.7501 78.206 58.051 77.9052C58.3518 77.6044 58.5208 77.1963 58.5208 76.7709V43.5919C58.5207 42.845 58.7812 42.1215 59.2573 41.5461C59.7335 40.9707 60.3955 40.5794 61.1292 40.4397C63.9461 39.9039 66.925 39.1612 70.1991 38.2067C70.4014 38.1477 70.59 38.0495 70.7543 37.9176C70.9185 37.7857 71.0552 37.6228 71.1565 37.4381C71.2578 37.2533 71.3217 37.0505 71.3446 36.8411C71.3675 36.6317 71.349 36.4198 71.29 36.2176C71.231 36.0153 71.1327 35.8267 71.0009 35.6624C70.869 35.4981 70.706 35.3615 70.5213 35.2602C70.3366 35.1589 70.1337 35.095 69.9243 35.0721C69.7149 35.0492 69.503 35.0677 69.3008 35.1267C61.8671 37.2923 56.1627 38.2966 50.5064 38.2709C44.8437 38.2452 39.1328 37.1897 31.6783 35.1219C31.4739 35.061 31.2594 35.0414 31.0473 35.0643C30.8353 35.0873 30.6299 35.1523 30.4433 35.2555C30.2567 35.3588 30.0925 35.4982 29.9604 35.6657C29.8283 35.8331 29.7309 36.0253 29.674 36.2308C29.617 36.4363 29.6016 36.6512 29.6287 36.8627C29.6557 37.0743 29.7247 37.2784 29.8316 37.4629C29.9385 37.6475 30.0811 37.8089 30.2511 37.9378C30.4211 38.0666 30.615 38.1602 30.8217 38.2131C34.0829 39.1179 37.0555 39.843 39.8708 40.3788V40.3788ZM48.8605 78.059C48.5789 79.0726 47.973 79.966 47.1354 80.6025C46.2979 81.239 45.2748 81.5835 44.2229 81.5834H44.0833C42.8069 81.5834 41.5829 81.0764 40.6804 80.1738C39.7778 79.2713 39.2708 78.0472 39.2708 76.7709V43.5326C36.3416 42.9743 33.2792 42.2236 29.9634 41.3028C29.3418 41.1455 28.7578 40.8655 28.2459 40.4793C27.734 40.0932 27.3044 39.6086 26.9824 39.0541C26.6604 38.4996 26.4524 37.8863 26.3707 37.2503C26.2891 36.6143 26.3353 35.9683 26.5068 35.3505C26.6783 34.7326 26.9715 34.1552 27.3692 33.6522C27.767 33.1492 28.2612 32.7308 28.823 32.4216C29.3847 32.1123 30.0026 31.9184 30.6403 31.8513C31.278 31.7841 31.9227 31.8451 32.5365 32.0307C39.8676 34.0632 45.2656 35.0385 50.5208 35.0626C55.76 35.085 61.1372 34.1642 68.4041 32.0467C69.0137 31.8601 69.6542 31.7964 70.2886 31.8594C70.923 31.9224 71.5386 32.1108 72.0996 32.4137C72.6605 32.7166 73.1557 33.1279 73.5564 33.6238C73.9571 34.1197 74.2552 34.6902 74.4335 35.3023C74.6118 35.9144 74.6667 36.5558 74.5951 37.1893C74.5234 37.8228 74.3266 38.4357 74.0161 38.9925C73.7056 39.5492 73.2875 40.0388 72.7862 40.4326C72.2849 40.8265 71.7103 41.1168 71.0959 41.2867C67.7528 42.2621 64.6712 43.0321 61.7291 43.5919V76.7709C61.7291 78.0472 61.2221 79.2713 60.3196 80.1738C59.4171 81.0764 58.193 81.5834 56.9166 81.5834H56.7771C55.5762 81.5835 54.4186 81.1347 53.5317 80.3249C52.6448 79.5152 52.0927 78.4032 51.9838 77.2072L50.5128 61.0212C50.5044 60.9268 50.5001 60.832 50.5 60.7372C50.5 60.8319 50.4952 60.9249 50.4871 61.0196L49.0145 77.2056C48.9885 77.4941 48.937 77.7797 48.8605 78.059V78.059Z" fill="#383838"/>
</svg>
