<svg width="35" height="35" viewBox="0 0 35 35" fill="none" xmlns="http://www.w3.org/2000/svg">
<path fill-rule="evenodd" clip-rule="evenodd" d="M17.5 0.541504C8.13436 0.541504 0.541656 8.13421 0.541656 17.4998C0.541656 26.8655 8.13436 34.4582 17.5 34.4582C26.8656 34.4582 34.4583 26.8655 34.4583 17.4998C34.4583 8.13421 26.8656 0.541504 17.5 0.541504ZM24.8507 14.6323C24.986 14.4776 25.0891 14.2974 25.1537 14.1023C25.2184 13.9071 25.2434 13.701 25.2272 13.4961C25.2111 13.2912 25.1541 13.0915 25.0597 12.909C24.9652 12.7264 24.8352 12.5645 24.6773 12.4329C24.5194 12.3013 24.3367 12.2026 24.1401 12.1426C23.9435 12.0827 23.7368 12.0626 23.5323 12.0837C23.3279 12.1048 23.1297 12.1665 22.9494 12.2653C22.7691 12.3641 22.6104 12.498 22.4827 12.659L15.8535 20.6125L12.4233 17.1807C12.1325 16.8999 11.7431 16.7445 11.3389 16.748C10.9347 16.7515 10.548 16.9137 10.2621 17.1995C9.97631 17.4853 9.81417 17.872 9.81066 18.2762C9.80715 18.6804 9.96254 19.0699 10.2434 19.3606L14.8684 23.9856C15.0198 24.137 15.2012 24.2552 15.4009 24.3326C15.6006 24.41 15.8142 24.445 16.0281 24.4353C16.242 24.4255 16.4516 24.3713 16.6435 24.2762C16.8353 24.181 17.0052 24.0468 17.1423 23.8823L24.8507 14.6323Z" fill="#2D9384"/>
</svg>
